<svg width="76" height="89" viewBox="0 0 76 89" fill="none" xmlns="http://www.w3.org/2000/svg">
<path d="M39.4827 39.086H53.4039C53.2025 26.842 43.1391 18.3887 27.8426 18.3887C12.7809 18.3887 1.74445 26.708 1.81145 39.1868C1.77795 49.3173 8.92324 55.1207 20.5298 57.9049L28.0101 59.7833C35.4907 61.5948 39.6502 63.7415 39.684 68.3709C39.6502 73.4027 34.8871 76.8243 27.507 76.8243C19.9594 76.8243 14.5251 73.3357 14.0555 66.4587H0C0.369119 81.3194 11.003 89.001 27.6748 89.001C44.4474 89.001 54.3096 80.9838 54.3431 68.4044C54.3096 56.9657 45.6885 50.8939 33.7466 48.2102L27.5743 46.7344C21.603 45.3591 16.6048 43.145 16.7056 38.2138C16.7056 33.786 20.6303 30.5322 27.7418 30.5322C34.6858 30.5322 38.9458 33.6855 39.4827 39.086Z" fill="#FFC647"/>
<path d="M57.4884 16.2794C57.4962 17.9126 56.3785 18.7689 55.1654 18.7689C53.8889 18.7689 53.0642 17.8733 53.0564 16.4381V9.28663H49.6787V17.0407C49.6868 19.887 51.3516 21.6233 53.8018 21.6233C55.6331 21.6233 56.9492 20.6799 57.4962 19.2525H57.6231V21.4646H60.8658V9.28663H57.4884V16.2794ZM63.5673 26.0316H66.945V19.5143H67.0481C67.5158 20.529 68.5386 21.663 70.5048 21.663C73.2799 21.663 75.4442 19.4668 75.4442 15.3916C75.4442 11.2054 73.1846 9.12793 70.5129 9.12793C68.4751 9.12793 67.4998 10.341 67.0481 11.3322H66.8975V9.28663H63.5673V26.0316ZM66.8738 15.3756C66.8738 13.2032 67.7932 11.8158 69.4345 11.8158C71.1074 11.8158 71.9953 13.2666 71.9953 15.3756C71.9953 17.5006 71.0915 18.9751 69.4345 18.9751C67.8091 18.9751 66.8738 17.5481 66.8738 15.3756Z" fill="#FFC647"/>
<path d="M36.3178 6.93482L39.2076 0.99444C39.248 0.87411 39.2603 0.743381 39.2434 0.615572C39.2268 0.487437 39.1816 0.367101 39.1127 0.266934C39.0434 0.166768 38.9533 0.0900253 38.8509 0.0451457C38.7484 0.00026605 38.6382 -0.011443 38.5305 0.0113221C38.3868 0.0422175 38.2574 0.133928 38.1656 0.269217L35.239 6.30162C32.9011 5.05702 30.3676 4.41342 27.8053 4.41342C25.2429 4.41342 22.7095 5.05702 20.3715 6.30162L17.4449 0.283201C17.3525 0.149213 17.2231 0.0584766 17.0794 0.0279064C16.9359 -0.00266382 16.788 0.0285555 16.6621 0.116038C16.5363 0.203846 16.441 0.341737 16.3935 0.505645C16.346 0.669228 16.3493 0.84777 16.4029 1.00875L19.2928 6.93645C16.7968 8.55049 14.6803 10.879 13.1348 13.7107C11.5897 16.5423 10.6652 19.787 10.4453 23.1504H45.1708C44.9496 19.7867 44.0241 16.5417 42.478 13.71C40.9319 10.8787 38.8144 8.55016 36.3178 6.93645V6.93482ZM19.8079 17.2789C19.5221 17.2776 19.243 17.1765 19.0059 16.9875C18.7685 16.7986 18.5835 16.5309 18.4742 16.2174C18.3646 15.9042 18.3357 15.5595 18.391 15.2268C18.4462 14.8941 18.5832 14.5884 18.7845 14.3478C18.9526 14.1484 19.1598 14.0014 19.3871 13.9195C19.6147 13.8378 19.8557 13.8238 20.0889 13.8791C20.3221 13.9341 20.5403 14.0567 20.724 14.2356C20.9078 14.4148 21.0515 14.6447 21.1423 14.9052C21.2333 15.166 21.2688 15.4493 21.2457 15.7299C21.2226 16.0106 21.1413 16.2805 21.0093 16.515C20.8776 16.7498 20.6987 16.9423 20.4892 17.0753C20.2795 17.2087 20.0457 17.2786 19.8079 17.2789ZM35.7948 17.2789C35.6049 17.2792 35.4166 17.2353 35.241 17.1492C35.065 17.0633 34.9054 16.9371 34.771 16.7781C34.6364 16.6187 34.5294 16.4298 34.4562 16.2217C34.3834 16.0135 34.3457 15.7901 34.3453 15.5647C34.345 15.3393 34.3821 15.1159 34.4543 14.9075C34.5268 14.699 34.6332 14.5094 34.7671 14.3497C34.9011 14.1897 35.0605 14.0629 35.2361 13.9764C35.4114 13.8895 35.5994 13.8447 35.7896 13.8443C36.1734 13.8437 36.5415 14.0235 36.8134 14.3452C37.0853 14.6665 37.2385 15.1029 37.2391 15.5585C37.2398 16.0138 37.0882 16.4509 36.8173 16.7735C36.5464 17.0962 36.1786 17.2779 35.7948 17.2789Z" fill="#FFC647"/>
</svg>
