<svg width="744" height="838" viewBox="0 0 744 838" fill="none" xmlns="http://www.w3.org/2000/svg">
<g clip-path="url(#clip0)">
<path d="M735.754 404.282C735.754 404.282 788.782 401.27 864.115 465.752L916.874 523.484L757.834 533.037L624.083 538.095L577.438 494.823L583.62 449.302L735.754 404.282Z" fill="url(#paint0_radial)"/>
<path d="M418.101 399.134C418.101 399.134 368.658 381.303 272.503 422.648L182.643 467.848L257.948 544.277L438.343 524.046L502.409 474.029V417.831L418.101 399.134Z" fill="url(#paint1_radial)"/>
<path d="M877.137 233.817C875.984 231.075 874.743 228.366 873.416 225.708C858.591 195.968 829.942 176.36 801.314 160.743C775.576 146.699 747.797 136.685 719.355 129.722C692.111 123.051 664.776 120.061 638.02 111.441C602.081 99.8582 567.66 82.3244 530.834 73.7149C491.135 64.4366 448.004 62.3854 407.603 67.3758C360.739 73.1641 302.631 89.6582 274.217 130.048C250.209 164.177 232.822 202.464 208.825 236.554C191.443 261.242 170.29 283.097 152.948 307.813C135.605 332.529 121.904 359.622 122.466 389.811H415.313C430.683 390.576 452.196 388.215 458.563 406.255C463.104 419.119 454.938 436.411 451.375 449.139C448.627 458.935 445.885 468.736 443.137 478.531L398.741 494.828C398.741 494.828 442.575 489.771 479.665 471.787C479.665 471.787 501.583 479.655 511.979 481.622L527.434 480.217L512.26 546.53C512.26 546.53 520.69 539.225 531.649 513.655L547.384 515.341L563.119 522.084L654.424 486.028C665.22 481.762 675.824 477.036 686.215 471.849C710.223 459.873 759.655 437.057 779.498 441.564C772.558 437.681 756.789 427.812 767.719 419.18C773.485 414.628 780.914 415.629 787.681 414.949C835.612 410.144 874.192 362.269 884.616 317.771C891.13 289.931 888.191 260.135 877.137 233.817Z" fill="url(#paint2_radial)"/>
<path d="M877.137 233.817C875.984 231.075 874.743 228.366 873.416 225.708C858.591 195.968 829.941 176.36 801.314 160.743C775.576 146.699 747.797 136.685 719.355 129.722C692.111 123.051 664.776 120.061 638.02 111.441C602.081 99.8582 567.66 82.3244 530.834 73.7149C491.135 64.4366 448.004 62.3854 407.603 67.3758C360.739 73.1641 302.631 89.6582 274.217 130.048C250.209 164.177 232.822 202.464 208.825 236.554C191.443 261.242 170.29 283.097 152.948 307.813C135.605 332.529 121.904 359.622 122.466 389.811H415.313C430.683 390.576 452.196 388.215 458.563 406.255C463.104 419.119 454.938 436.411 451.375 449.139C448.627 458.935 445.885 468.736 443.137 478.531L398.741 494.828C398.741 494.828 442.575 489.771 479.665 471.787C479.665 471.787 501.583 479.655 511.979 481.622L527.434 480.217L512.26 546.53C512.26 546.53 520.69 539.225 531.649 513.655L547.384 515.341L563.119 522.084L654.424 486.028C665.22 481.762 675.824 477.036 686.215 471.849C710.223 459.873 759.655 437.057 779.498 441.564C772.558 437.681 756.789 427.812 767.719 419.18C773.485 414.628 780.914 415.629 787.681 414.949C835.612 410.144 874.192 362.269 884.616 317.771C891.13 289.931 888.191 260.135 877.137 233.817Z" fill="url(#paint3_radial)"/>
<path d="M735.754 404.282C735.754 404.282 788.782 401.27 864.116 465.752" stroke="#FA404B" stroke-width="0.561979" stroke-miterlimit="10"/>
<path d="M669.277 443.509C672.318 443.053 737.681 426.301 791.671 445.2" stroke="#FA404B" stroke-width="0.561979" stroke-miterlimit="10"/>
<path opacity="0.3" d="M417.82 400.259C417.82 400.259 368.675 379.162 272.223 423.772" stroke="#FA404B" stroke-width="0.561979" stroke-miterlimit="10"/>
<path d="M216.329 266.406H195.907H193.22H172.792L165.268 271.245H193.22H195.907H223.854L216.329 266.406Z" fill="#FFC850"/>
<path d="M216.329 266.406H195.907H193.22H172.792L165.268 271.245H193.22H195.907H223.854L216.329 266.406Z" fill="url(#paint4_radial)"/>
<path d="M194.703 266.406C196.779 266.406 198.463 264.723 198.463 262.647C198.463 260.57 196.779 258.887 194.703 258.887C192.627 258.887 190.943 260.57 190.943 262.647C190.943 264.723 192.627 266.406 194.703 266.406Z" fill="url(#paint5_radial)"/>
<path d="M243.584 306.937C236.52 322.318 230.917 330.86 226.939 335.597L223.488 289.481L231.755 284.401L250.575 284.508C251.683 284.514 252.447 285.621 252.054 286.66C250.188 291.566 247.22 299.024 243.584 306.937ZM254.167 277.41H229.777L216.199 285.756L220.706 345.927H226.27C241.207 335.069 256.482 295.006 260.039 285.233C260.523 283.901 260.253 282.417 259.331 281.344L257.151 278.793C256.403 277.916 255.313 277.41 254.167 277.41Z" fill="url(#paint6_radial)"/>
<path d="M165.7 385.153L168.577 389.294H220.723L223.409 385.422C223.999 384.568 224.342 383.59 224.393 382.579L230.108 270.992H159.018L164.716 382.309C164.772 383.321 165.109 384.298 165.7 385.153Z" fill="#EECFF8"/>
<path d="M165.7 385.153L168.577 389.294H220.723L223.409 385.422C223.999 384.568 224.342 383.59 224.393 382.579L230.108 270.992H159.018L164.716 382.309C164.772 383.321 165.109 384.298 165.7 385.153Z" fill="url(#paint7_radial)"/>
<path d="M147.947 270.992L159.226 285.222L160.547 300.845L171.562 270.992H147.947Z" fill="url(#paint8_radial)"/>
<path d="M158.378 267.913C156.624 267.53 155.557 265.586 155.607 263.788C155.658 261.989 156.557 260.337 157.512 258.82C158.468 257.297 159.53 255.791 159.968 254.049C160.839 250.581 159.097 247.052 157.406 243.905" stroke="#C0D8F0" stroke-width="0.561979" stroke-miterlimit="10"/>
<path d="M162.723 279.04L167.022 347.303" stroke="white" stroke-width="0.561979" stroke-miterlimit="10"/>
<path d="M242.539 279.579H252.565C253.706 279.579 254.796 280.079 255.538 280.945L257.589 283.339" stroke="white" stroke-width="0.561979" stroke-miterlimit="10"/>
<path d="M196.177 309.499H192.951V312.815H196.177V309.499Z" fill="#F2D9A2"/>
<path d="M196.177 317.204H192.951V320.519H196.177V317.204Z" fill="#F2D9A2"/>
<path d="M196.177 313.349H192.951V316.664H196.177V313.349Z" fill="#F2D9A2"/>
<path d="M196.177 321.053H192.951V324.369H196.177V321.053Z" fill="#808CC6"/>
<path d="M196.177 332.607H192.951V335.923H196.177V332.607Z" fill="#808CC6"/>
<path d="M196.177 324.903H192.951V328.218H196.177V324.903Z" fill="#808CC6"/>
<path d="M196.177 328.758H192.951V332.074H196.177V328.758Z" fill="#808CC6"/>
<path d="M196.177 305.644H192.951V308.959H196.177V305.644Z" fill="#F2D9A2"/>
<path d="M196.177 336.463H192.951V339.779H196.177V336.463Z" fill="#808CC6"/>
<path d="M194.564 341.925C195.452 341.925 196.177 341.206 196.177 340.312H192.951C192.951 341.206 193.671 341.925 194.564 341.925Z" fill="#808CC6"/>
<path d="M194.564 291.937C193.676 291.937 192.951 292.656 192.951 293.55H196.177C196.177 292.662 195.452 291.937 194.564 291.937Z" fill="#F2D9A2"/>
<path d="M196.177 301.794H192.951V305.11H196.177V301.794Z" fill="#F2D9A2"/>
<path d="M196.177 294.089H192.951V297.405H196.177V294.089Z" fill="#F2D9A2"/>
<path d="M196.177 297.939H192.951V301.255H196.177V297.939Z" fill="#F2D9A2"/>
<path d="M702.609 210.838L694.173 211.439C683.327 206.617 583.89 210.236 512.182 206.016C440.473 201.795 368.152 222.892 368.152 222.892L362.459 219.571C361.718 219.138 360.774 219.593 360.65 220.442C359.34 229.439 353.974 270.913 360.92 302.44C368.754 337.997 368.107 397.465 368.107 397.465C399.101 394.054 415.156 400.067 415.156 400.067L420.922 403.501L481.442 407.896L580.271 404.282L692.358 396.757C692.358 396.757 695.376 316.299 702.609 280.141C709.841 243.983 702.609 210.838 702.609 210.838Z" fill="#BDD9FF"/>
<path d="M690.555 280.141C690.555 280.141 700.198 253.627 694.168 216.867C694.168 216.867 661.624 213.855 631.496 216.266" stroke="white" stroke-width="0.561979" stroke-miterlimit="10"/>
<path d="M367.248 231.029C367.248 231.029 408.228 216.564 445.588 216.564" stroke="white" stroke-width="0.561979" stroke-miterlimit="10"/>
<path d="M366.944 263.872C366.944 263.872 365.135 284.361 372.368 306.661" stroke="white" stroke-width="0.561979" stroke-miterlimit="10"/>
<path d="M537.791 443.154L535.981 454C535.981 454 549.239 536.561 566.115 521.494C582.991 506.428 562.501 462.436 562.501 462.436L550.447 446.768L537.791 443.154Z" fill="#FFC647"/>
<path d="M547.569 453.826L513.289 468.078C510.827 469.101 509.068 471.321 508.658 473.951C507.191 483.308 504.803 507.844 511.271 546.199C511.271 546.199 517.296 555.235 527.54 490.153C527.54 490.153 535.374 478.705 569.121 471.472C602.874 464.245 547.569 453.826 547.569 453.826Z" fill="#FFDE99"/>
<path d="M547.569 453.826L513.289 468.078C510.827 469.101 509.068 471.321 508.658 473.951C507.191 483.308 504.803 507.844 511.271 546.199C511.271 546.199 517.296 555.235 527.54 490.153C527.54 490.153 535.374 478.705 569.121 471.472C602.874 464.245 547.569 453.826 547.569 453.826Z" fill="url(#paint9_radial)"/>
<path d="M468.555 421.406C468.555 421.406 469.606 450.887 470.331 463.925C470.483 466.628 468.971 469.14 466.51 470.27C453.168 476.384 410.908 495.104 393.666 495.104C393.666 495.104 385.422 492.496 441.075 461.84C441.075 461.84 446.571 442.272 442.451 421.406C438.321 400.534 468.555 421.406 468.555 421.406Z" fill="#FFDE99"/>
<path d="M468.555 421.406C468.555 421.406 469.606 450.887 470.331 463.925C470.483 466.628 468.971 469.14 466.51 470.27C453.168 476.384 410.908 495.104 393.666 495.104C393.666 495.104 385.422 492.496 441.075 461.84C441.075 461.84 446.571 442.272 442.451 421.406C438.321 400.534 468.555 421.406 468.555 421.406Z" fill="url(#paint10_radial)"/>
<path d="M300.956 349.141L291.048 351.967L291.312 354.564L275.875 361.116C272.986 362.342 270.969 365.017 270.609 368.13C270.53 368.816 270.463 369.529 270.418 370.232H272.632L272.497 370.322C270.901 371.373 270.12 373.362 270.733 375.172C270.896 375.655 271.12 376.031 271.424 376.262L289.503 370.839L305.171 364.207L307.582 360.594L300.956 349.141Z" fill="#FFDE99"/>
<path d="M300.956 349.141L291.048 351.967L291.312 354.564L275.875 361.116C272.986 362.342 270.969 365.017 270.609 368.13C270.53 368.816 270.463 369.529 270.418 370.232H272.632L272.497 370.322C270.901 371.373 270.12 373.362 270.733 375.172C270.896 375.655 271.12 376.031 271.424 376.262L289.503 370.839L305.171 364.207L307.582 360.594L300.956 349.141Z" fill="url(#paint11_radial)"/>
<path d="M287.098 341.908L279.264 349.141L280.466 356.975L289.503 366.618C289.503 366.618 292.515 361.797 288.3 356.374C284.08 350.95 287.098 352.76 287.098 352.76L299.152 350.349V345.527L287.098 341.908Z" fill="#FFDE99"/>
<path d="M287.098 341.908L279.264 349.141L280.466 356.975L289.503 366.618C289.503 366.618 292.515 361.797 288.3 356.374C284.08 350.95 287.098 352.76 287.098 352.76L299.152 350.349V345.527L287.098 341.908Z" fill="url(#paint12_radial)"/>
<path d="M278.36 349.141C283.176 349.141 287.099 352.653 287.099 356.975C287.099 361.296 283.176 364.809 278.36 364.809C273.544 364.809 269.621 361.296 269.621 356.975C269.621 352.659 273.544 349.141 278.36 349.141ZM278.36 344.926C271.206 344.926 265.406 350.321 265.406 356.98C265.406 363.64 271.206 369.035 278.36 369.035C285.514 369.035 291.319 363.64 291.319 356.98C291.319 350.321 285.514 344.926 278.36 344.926Z" fill="#F1B123"/>
<path d="M385.927 326.24C385.927 326.24 326.869 350.343 316.624 350.343L306.98 338.289L282.27 340.7C282.27 340.7 284.08 346.724 297.337 347.331C297.337 347.331 294.324 358.177 303.361 361.797C303.361 361.797 277.448 374.452 271.424 380.477C271.424 380.477 293.116 373.845 302.76 371.44C309.734 369.698 314.814 368.585 318.237 367.192C321.631 365.809 325.149 364.769 328.757 364.146L404.602 350.956C404.607 350.95 406.417 318.406 385.927 326.24Z" fill="#FFDE99"/>
<path d="M385.927 326.24C385.927 326.24 326.869 350.343 316.624 350.343L306.98 338.289L282.27 340.7C282.27 340.7 284.08 346.724 297.337 347.331C297.337 347.331 294.324 358.177 303.361 361.797C303.361 361.797 277.448 374.452 271.424 380.477C271.424 380.477 293.116 373.845 302.76 371.44C312.403 369.029 318.428 367.827 321.44 365.416L404.602 350.95C404.607 350.95 406.417 318.406 385.927 326.24Z" fill="url(#paint13_radial)"/>
<path d="M458.243 152.684C458.243 152.684 434.14 181.609 469.089 222.589C469.089 222.589 474.512 229.821 475.72 238.257C475.72 238.257 522.398 230.181 526.012 216.924C529.625 203.667 493.799 173.174 493.799 173.174L484.156 157.506L463.666 152.684H458.243Z" fill="url(#paint14_radial)"/>
<path d="M506.456 219.576C506.456 219.576 519.111 240.668 510.676 250.912H499.229L513.694 275.016L540.809 276.218L552.864 260.55L557.686 234.637L551.054 233.435C551.054 233.435 528.985 225.651 528.873 176.208L502.848 199.081L506.456 219.576Z" fill="#FFDE99"/>
<path d="M506.456 219.576C506.456 219.576 519.111 240.668 510.676 250.912H499.229L513.694 275.016L540.809 276.218L552.864 260.55L557.686 234.637L551.054 233.435C551.054 233.435 528.985 225.651 528.873 176.208L502.848 199.081L506.456 219.576Z" fill="url(#paint15_radial)"/>
<path d="M506.456 219.576C506.456 219.576 519.111 240.668 510.676 250.912H499.229L513.694 275.016L540.809 276.218L552.864 260.55L557.686 234.637L551.054 233.435C551.054 233.435 528.985 225.651 528.873 176.208L502.848 199.081L506.456 219.576Z" fill="url(#paint16_radial)"/>
<path d="M464.875 153.892C464.875 153.892 465.915 213.597 487.264 226.994C490.04 228.736 493.553 228.815 496.481 227.332C504.051 223.499 520.404 214.434 524.535 205.718C529.958 194.27 528.755 174.983 528.755 174.983L464.875 153.892Z" fill="#FFDE99"/>
<path d="M567.318 157.506C553.459 137.617 532.97 110.502 516.695 114.115C502.859 117.189 473.344 129.413 464.813 133.004C463.318 133.633 462.166 134.875 461.655 136.415L460.654 139.421L460.081 139.23C457.26 138.292 454.186 139.702 453.073 142.456C447.875 155.292 436.748 191.27 460.059 221.375L461.868 220.773C461.868 220.773 449.814 206.915 450.421 184.014C450.825 168.717 457.142 160.142 461.295 156.135C462.672 154.808 464.965 155.73 465.026 157.641C465.026 157.641 482.364 173.163 500.442 176.18C518.521 179.193 523.343 195.462 523.343 195.462L525.153 194.861C525.153 194.861 522.742 187.027 515.509 180.395C508.276 173.764 506.472 172.561 506.472 172.561C506.472 172.561 516.256 177.147 522.14 184.009C532.987 196.665 537.207 224.387 527.563 231.013C527.563 231.013 539.966 229.091 552.262 224.966C553.235 222.566 554.971 216.356 554.083 203.897H555.286C555.286 203.897 556.859 214.412 554.612 224.151C558.826 222.634 562.929 220.852 566.413 218.795C566.784 216.317 567.138 213.428 567.436 210.068L568.155 210.163C568.155 210.163 568.015 213.535 567.425 218.183C571.477 215.637 574.562 212.692 575.776 209.326C581.176 194.265 581.176 177.394 567.318 157.506Z" fill="url(#paint17_radial)"/>
<path d="M511.271 249.71C511.271 249.71 501.628 249.108 478.727 256.942L386.529 320.817C386.529 320.817 380.504 367.22 401.595 385.298L489.579 335.282L516.694 394.942L598.047 388.918C598.047 388.918 590.212 355.772 593.225 346.735C596.237 337.699 607.69 323.835 607.69 317.81C607.69 317.81 625.769 345.533 649.271 362.403L658.308 314.191C658.308 314.191 616.125 249.108 603.47 244.888C590.814 240.667 567.312 232.232 551.043 233.44C551.043 233.44 543.209 268.39 527.541 268.997C511.878 269.598 511.271 249.71 511.271 249.71Z" fill="#F9C1DA"/>
<path d="M511.271 249.71C511.271 249.71 501.628 249.108 478.727 256.942L386.529 320.817C386.529 320.817 380.504 367.22 401.595 385.298L489.579 335.282L516.694 394.942L598.047 388.918C598.047 388.918 590.212 355.772 593.225 346.735C596.237 337.699 607.69 323.835 607.69 317.81C607.69 317.81 625.769 345.533 649.271 362.403L658.308 314.191C658.308 314.191 616.125 249.108 603.47 244.888C590.814 240.667 567.312 232.232 551.043 233.44C551.043 233.44 543.209 268.39 527.541 268.997C511.878 269.598 511.271 249.71 511.271 249.71Z" fill="url(#paint18_radial)"/>
<path d="M511.271 249.71C511.271 249.71 501.628 249.108 478.727 256.942L386.529 320.817C386.529 320.817 380.504 367.22 401.595 385.298L489.579 335.282L516.694 394.942L598.047 388.918C598.047 388.918 590.212 355.772 593.225 346.735C596.237 337.699 607.69 323.835 607.69 317.81C607.69 317.81 625.769 345.533 649.271 362.403L658.308 314.191C658.308 314.191 616.125 249.108 603.47 244.888C590.814 240.667 567.312 232.232 551.043 233.44C551.043 233.44 543.209 268.39 527.541 268.997C511.878 269.598 511.271 249.71 511.271 249.71Z" fill="url(#paint19_radial)"/>
<path d="M246.72 340.104L217.435 340.722C217.075 360.021 235.873 379.875 235.873 379.875L236.475 381.685H246.72H257.127L257.74 379.875C257.74 379.875 276.842 360.021 276.476 340.722L246.72 340.104Z" fill="#FFC647"/>
<path d="M246.72 340.104L217.435 340.722C217.075 360.021 235.873 379.875 235.873 379.875L236.475 381.685H246.72H257.127L257.74 379.875C257.74 379.875 276.842 360.021 276.476 340.722L246.72 340.104Z" fill="url(#paint20_radial)"/>
<path d="M607.695 317.805L599.26 308.161C599.26 308.161 599.552 350.057 565.513 358.784C542.011 364.809 532.154 381.528 527.546 394.341L535.981 397.954L598.052 388.918C598.052 388.918 590.218 355.772 593.23 346.735C596.242 337.693 607.695 323.829 607.695 317.805Z" fill="url(#paint21_radial)"/>
<path d="M288.301 356.373C287.109 354.845 286.497 353.89 286.227 353.305C286.21 353.294 286.199 353.277 286.182 353.266C285.305 353.018 284.451 352.676 283.541 352.344C282.259 351.878 280.916 351.619 279.59 351.31L280.461 356.98L289.498 366.624C289.509 366.618 292.521 361.797 288.301 356.373Z" fill="#FFDE99"/>
<path d="M528.749 391.329C528.749 391.329 473.31 269.598 454.624 261.163C454.624 261.163 437.748 259.353 429.312 263.574C420.877 267.794 415.454 436.529 415.454 436.529H477.525C477.525 436.529 485.359 457.018 535.982 453.405C535.982 453.405 536.583 444.368 542.006 444.97C547.429 445.571 569.729 517.886 564.907 522.708L744.369 432.14C754.367 427.093 760.324 408.508 756.542 397.966C754.271 391.638 745.527 386.288 738.463 385.31C720.985 382.899 597.749 388.626 597.749 388.626C597.749 388.626 544.119 394.639 528.749 391.329Z" fill="#DEF4FF"/>
<path d="M756.541 397.954C754.271 391.626 745.527 386.276 738.463 385.298C730.932 384.259 703.766 384.731 675.279 385.608C673.56 388.575 671.947 391.609 670.429 394.683C665.287 405.125 661.241 416.084 657.88 427.211C654.469 438.501 651.592 449.993 650.108 461.705C649.321 467.898 648.883 474.13 648.799 480.357L744.375 432.123C754.367 427.082 760.324 408.497 756.541 397.954Z" fill="url(#paint22_radial)"/>
<path d="M445.216 339.272C455.877 336.963 466.245 333.349 476.198 328.898C482.251 326.195 488.095 323.172 493.496 319.423C478.688 291.358 462.98 264.934 454.629 261.157C454.629 261.157 437.753 259.348 429.318 263.568C425.423 265.518 422.169 302.536 419.798 341.824C428.323 342.043 436.871 341.082 445.216 339.272Z" fill="url(#paint23_radial)"/>
<path d="M597.749 388.614C597.749 388.614 546.35 394.391 529.772 391.52L529.052 391.627L528.878 391.351C528.839 391.34 528.794 391.334 528.755 391.329C528.755 391.329 528.659 391.115 528.474 390.716L479.643 313.894L492.9 436.225H477.232V436.529H477.536C477.536 436.529 485.37 457.018 535.993 453.405C535.993 453.405 536.398 447.38 539.5 445.498C539.764 445.335 540.056 445.206 540.36 445.116L680.624 403.996L643.865 394.959L643.264 391.947L748.118 388.935L597.749 388.614Z" fill="url(#paint24_radial)"/>
<path d="M597.749 388.614C597.749 388.614 546.35 394.391 529.772 391.52L529.052 391.627L528.878 391.351C528.839 391.34 528.794 391.334 528.755 391.329C528.755 391.329 528.659 391.115 528.474 390.716L479.643 313.894L492.9 436.225H477.232V436.529H477.536C477.536 436.529 485.37 457.018 535.993 453.405C535.993 453.405 536.398 447.38 539.5 445.498C539.764 445.335 540.056 445.206 540.36 445.116L680.624 403.996L643.865 394.959L643.264 391.947L748.118 388.935L597.749 388.614Z" fill="url(#paint25_radial)"/>
<path d="M488.348 210.057C489.775 208.101 491.197 206.151 492.625 204.195C492.917 203.796 493.383 203.341 493.833 203.555C494.114 203.689 494.221 204.027 494.299 204.33C494.788 206.359 494.996 208.455 494.912 210.534C494.861 211.793 494.541 213.277 493.372 213.754C492.377 214.165 491.242 213.608 490.427 212.906C489.511 212.125 488.769 211.136 488.264 210.04" fill="url(#paint26_radial)"/>
<path d="M508.434 150.391C523.202 153.533 535.493 164.913 541.669 178.692C547.845 192.472 548.368 208.337 545.193 223.1" stroke="#F1B123" stroke-width="0.561979" stroke-miterlimit="10"/>
<path d="M541.18 165.98C546.063 169.616 548.688 175.528 550.441 181.356C552.582 188.471 553.734 195.883 553.864 203.313" stroke="#F1B123" stroke-width="0.561979" stroke-miterlimit="10"/>
<path d="M502.15 165.306C513.941 168.998 524.017 177.557 530.064 188.325C536.116 199.092 538.19 211.939 536.409 224.162" stroke="#F1B123" stroke-width="0.561979" stroke-miterlimit="10"/>
<path d="M601.958 247.243C597.007 247.878 592.578 251.559 591.05 256.313" stroke="#FA404B" stroke-width="0.561979" stroke-miterlimit="10"/>
<path d="M551.987 351.591C558.428 353.305 565.452 352.99 571.567 350.343C577.681 347.696 582.795 342.655 585.189 336.44" stroke="#FA404B" stroke-width="0.561979" stroke-miterlimit="10"/>
<path d="M508.411 254.812C510.322 262.399 512.958 270.863 519.954 274.358C525.063 276.91 531.407 275.982 536.342 273.116C541.276 270.25 545.002 265.681 548.109 260.893C553.083 253.228 556.758 244.725 558.939 235.857" stroke="#FA404B" stroke-width="0.561979" stroke-miterlimit="10"/>
<path d="M391.137 321.424C390.654 331.438 390.62 341.554 392.514 351.4C394.402 361.246 398.325 370.884 404.985 378.375" stroke="#FA404B" stroke-width="0.561979" stroke-miterlimit="10"/>
<path d="M478.34 258.426C479.087 258.359 479.565 259.185 479.812 259.893C481.195 263.793 481.611 268.03 481.015 272.122" stroke="#FA404B" stroke-width="0.561979" stroke-miterlimit="10"/>
<path d="M460.693 276.932C469.994 280.748 477.828 297.619 479.638 312.685" stroke="#F2D9A2" stroke-width="0.561979" stroke-miterlimit="10"/>
<path opacity="0.2" d="M680.354 403.596C694.112 397.314 709.701 395.116 724.661 397.353" stroke="#F2D9A2" stroke-width="0.561979" stroke-miterlimit="10"/>
<path opacity="0.2" d="M694.044 404.068C700.889 402.377 708.105 402.208 715.017 403.591" stroke="#F2D9A2" stroke-width="0.561979" stroke-miterlimit="10"/>
<path d="M549.644 445.644C561.664 466.914 569.504 490.54 572.578 514.778" stroke="#F2D9A2" stroke-width="0.561979" stroke-miterlimit="10"/>
<path d="M419.865 430.459C420.068 430.459 420.27 430.459 420.472 430.459H485.347" stroke="#F2D9A2" stroke-width="0.561979" stroke-miterlimit="10"/>
<path d="M246.72 345.527C263.027 345.527 276.246 343.369 276.246 340.706C276.246 338.043 263.027 335.884 246.72 335.884C230.413 335.884 217.193 338.043 217.193 340.706C217.193 343.369 230.413 345.527 246.72 345.527Z" fill="#DEF4FF"/>
<path d="M246.72 345.527C263.027 345.527 276.246 343.369 276.246 340.706C276.246 338.043 263.027 335.884 246.72 335.884C230.413 335.884 217.193 338.043 217.193 340.706C217.193 343.369 230.413 345.527 246.72 345.527Z" fill="url(#paint27_radial)"/>
<path d="M226.062 339.874C231.463 338.901 239.258 338.294 247.929 338.294C248.958 338.294 249.969 338.306 250.969 338.317" stroke="white" stroke-width="0.561979" stroke-miterlimit="10"/>
<path d="M224.33 350.546C226.201 357.087 229.219 363.297 233.215 368.799" stroke="#BDD9FF" stroke-width="0.561979" stroke-miterlimit="10"/>
<path d="M508.434 178.681C485.555 179.311 473.164 185.835 468.69 188.791C471.051 200.795 474.867 213.198 481.015 221.144H497.07C497.07 221.139 538.095 177.866 508.434 178.681Z" fill="url(#paint28_radial)"/>
<path d="M761.824 388.772L538.724 389.12C537.262 389.12 536.077 387.94 536.071 386.479L536.065 384.54C536.065 383.079 537.246 381.893 538.707 381.887L761.807 381.539C763.268 381.539 764.454 382.719 764.459 384.18L764.465 386.119C764.465 387.58 763.285 388.766 761.824 388.772Z" fill="#241921"/>
<path d="M761.824 388.772L629.118 388.98C627.657 388.98 626.471 387.8 626.466 386.338L626.46 384.4C626.46 382.938 627.64 381.753 629.101 381.747L761.807 381.539C763.268 381.539 764.454 382.719 764.46 384.18L764.465 386.119C764.465 387.58 763.285 388.766 761.824 388.772Z" fill="#FFC647"/>
<path d="M795.452 272L665.967 272.202C664.219 272.202 662.673 273.326 662.128 274.984L628.196 378.433C627.336 381.052 629.292 383.738 632.046 383.738L761.531 383.536C763.279 383.536 764.824 382.412 765.37 380.754L799.302 277.305C800.156 274.686 798.206 271.994 795.452 272Z" fill="#FFC647"/>
<path d="M611.203 387.198L600.756 387.215C599.98 387.215 599.351 386.586 599.351 385.81V385.608C599.351 384.832 599.98 384.203 600.756 384.203L611.203 384.186C611.978 384.186 612.608 384.815 612.608 385.591V385.793C612.608 386.563 611.978 387.193 611.203 387.198Z" stroke="#F2F6FF" stroke-width="0.561979" stroke-miterlimit="10"/>
<path d="M755.529 387.271L745.082 387.288C744.306 387.288 743.677 386.658 743.677 385.883V385.681C743.677 384.905 744.306 384.276 745.082 384.276L755.529 384.259C756.304 384.259 756.934 384.888 756.934 385.664V385.866C756.934 386.642 756.304 387.271 755.529 387.271Z" stroke="#F2F6FF" stroke-width="0.561979" stroke-miterlimit="10"/>
<path d="M589.206 387.53L578.758 387.547C577.983 387.547 577.354 386.917 577.354 386.142V385.939C577.354 385.164 577.983 384.534 578.758 384.534L589.206 384.518C589.981 384.518 590.611 385.147 590.611 385.923V386.125C590.611 386.9 589.981 387.53 589.206 387.53Z" stroke="#F2F6FF" stroke-width="0.561979" stroke-miterlimit="10"/>
<path d="M619.334 387.485H619.132C618.356 387.485 617.727 386.855 617.727 386.08V385.878C617.727 385.102 618.356 384.473 619.132 384.473H619.334C620.109 384.473 620.739 385.102 620.739 385.878V386.08C620.739 386.855 620.115 387.485 619.334 387.485Z" stroke="#F2F6FF" stroke-width="0.561979" stroke-miterlimit="10"/>
<path d="M797.83 272.77C797.173 272.287 796.358 271.994 795.453 272L665.967 272.202C664.22 272.202 662.674 273.326 662.129 274.984L628.596 377.219L797.83 272.77Z" fill="url(#paint29_radial)"/>
<path d="M718.552 329.052C722.291 326.498 723.712 322.069 721.724 319.16C719.737 316.252 715.095 315.964 711.356 318.519C707.617 321.073 706.197 325.502 708.184 328.411C710.171 331.319 714.813 331.607 718.552 329.052Z" fill="#DFA831"/>
</g>
<path d="M777.571 395.459C778.131 483.185 757.431 621.134 670.16 471.125C582.888 321.115 741.58 257.81 831.835 244.909C868.29 311.787 897.048 445.437 720.444 445.014C543.84 444.592 402.673 744.198 907.046 702.471" stroke="white" stroke-width="18"/>
<circle cx="270" cy="153" r="85" fill="#FFC647"/>
<circle cx="74.5" cy="306.501" r="47.5" fill="url(#paint30_radial)"/>
<circle cx="270" cy="466.001" r="32" fill="url(#paint31_radial)"/>
<defs>
<radialGradient id="paint0_radial" cx="0" cy="0" r="1" gradientUnits="userSpaceOnUse" gradientTransform="translate(750.972 404.739) rotate(18.9169) scale(191.131 99.2828)">
<stop stop-color="#F9C1DA"/>
<stop offset="0.9011" stop-color="white" stop-opacity="0"/>
</radialGradient>
<radialGradient id="paint1_radial" cx="0" cy="0" r="1" gradientUnits="userSpaceOnUse" gradientTransform="translate(390.602 409.25) rotate(-1.91412) scale(171.948 99.6695)">
<stop stop-color="#F9C1DA"/>
<stop offset="0.9011" stop-color="white" stop-opacity="0"/>
</radialGradient>
<radialGradient id="paint2_radial" cx="0" cy="0" r="1" gradientUnits="userSpaceOnUse" gradientTransform="translate(835.272 73.8323) scale(499.323)">
<stop stop-color="#FBEFD4"/>
<stop offset="0.7754" stop-color="#FED57B" stop-opacity="0"/>
</radialGradient>
<radialGradient id="paint3_radial" cx="0" cy="0" r="1" gradientUnits="userSpaceOnUse" gradientTransform="translate(-782 121.535) scale(1447.9)">
<stop stop-color="#FFC647"/>
<stop offset="0.7754" stop-color="#FFC647" stop-opacity="0"/>
</radialGradient>
<radialGradient id="paint4_radial" cx="0" cy="0" r="1" gradientUnits="userSpaceOnUse" gradientTransform="translate(194.635 286.154) scale(38.0217)">
<stop stop-color="#FBDFA4"/>
<stop offset="0.307292" stop-color="#FBDFA4"/>
<stop offset="1" stop-color="#FDCA58" stop-opacity="0"/>
</radialGradient>
<radialGradient id="paint5_radial" cx="0" cy="0" r="1" gradientUnits="userSpaceOnUse" gradientTransform="translate(199.106 272.951) scale(15.476)">
<stop stop-color="#FDC854"/>
<stop offset="0.1471" stop-color="#FAE2AC"/>
<stop offset="1" stop-color="#FFBF35"/>
</radialGradient>
<radialGradient id="paint6_radial" cx="0" cy="0" r="1" gradientUnits="userSpaceOnUse" gradientTransform="translate(219.977 306.173) scale(51.9903)">
<stop stop-color="#FBDFA2"/>
<stop offset="0.1471" stop-color="#FBE0A6"/>
<stop offset="1" stop-color="#FFBF34"/>
</radialGradient>
<radialGradient id="paint7_radial" cx="0" cy="0" r="1" gradientUnits="userSpaceOnUse" gradientTransform="translate(234.458 368.57) scale(101.966)">
<stop stop-color="#D5C111"/>
<stop offset="0.1471" stop-color="#FFB81E"/>
<stop offset="1" stop-color="#FAE1AB"/>
</radialGradient>
<radialGradient id="paint8_radial" cx="0" cy="0" r="1" gradientUnits="userSpaceOnUse" gradientTransform="translate(154.172 302.765) scale(39.4293)">
<stop stop-color="#FAE2AC"/>
<stop offset="0.1471" stop-color="#FAE1A8"/>
<stop offset="1" stop-color="#FCD57F"/>
</radialGradient>
<radialGradient id="paint9_radial" cx="0" cy="0" r="1" gradientUnits="userSpaceOnUse" gradientTransform="translate(568.219 497.198) scale(111.446)">
<stop stop-color="#FA404B"/>
<stop offset="0.025" stop-color="#FA484F" stop-opacity="0.975"/>
<stop offset="0.1916" stop-color="#FC7565" stop-opacity="0.8084"/>
<stop offset="0.3589" stop-color="#FD9B78" stop-opacity="0.6411"/>
<stop offset="0.5244" stop-color="#FEB886" stop-opacity="0.4756"/>
<stop offset="0.6876" stop-color="#FECD91" stop-opacity="0.3124"/>
<stop offset="0.8474" stop-color="#FFDA97" stop-opacity="0.1526"/>
<stop offset="1" stop-color="#FFDE99" stop-opacity="0"/>
</radialGradient>
<radialGradient id="paint10_radial" cx="0" cy="0" r="1" gradientUnits="userSpaceOnUse" gradientTransform="translate(490.801 440.079) scale(101.415 96.2741)">
<stop stop-color="#FA404B"/>
<stop offset="0.025" stop-color="#FA484F" stop-opacity="0.975"/>
<stop offset="0.1916" stop-color="#FC7565" stop-opacity="0.8084"/>
<stop offset="0.3589" stop-color="#FD9B78" stop-opacity="0.6411"/>
<stop offset="0.5244" stop-color="#FEB886" stop-opacity="0.4756"/>
<stop offset="0.6876" stop-color="#FECD91" stop-opacity="0.3124"/>
<stop offset="0.8474" stop-color="#FFDA97" stop-opacity="0.1526"/>
<stop offset="1" stop-color="#FFDE99" stop-opacity="0"/>
</radialGradient>
<radialGradient id="paint11_radial" cx="0" cy="0" r="1" gradientUnits="userSpaceOnUse" gradientTransform="translate(306.846 368.569) scale(38.0383)">
<stop stop-color="#FA404B"/>
<stop offset="0.025" stop-color="#FA484F" stop-opacity="0.975"/>
<stop offset="0.1916" stop-color="#FC7565" stop-opacity="0.8084"/>
<stop offset="0.3589" stop-color="#FD9B78" stop-opacity="0.6411"/>
<stop offset="0.5244" stop-color="#FEB886" stop-opacity="0.4756"/>
<stop offset="0.6876" stop-color="#FECD91" stop-opacity="0.3124"/>
<stop offset="0.8474" stop-color="#FFDA97" stop-opacity="0.1526"/>
<stop offset="1" stop-color="#FFDE99" stop-opacity="0"/>
</radialGradient>
<radialGradient id="paint12_radial" cx="0" cy="0" r="1" gradientUnits="userSpaceOnUse" gradientTransform="translate(290.377 343.866) scale(10.8886)">
<stop stop-color="#FA404B"/>
<stop offset="0.025" stop-color="#FA484F" stop-opacity="0.975"/>
<stop offset="0.1916" stop-color="#FC7565" stop-opacity="0.8084"/>
<stop offset="0.3589" stop-color="#FD9B78" stop-opacity="0.6411"/>
<stop offset="0.5244" stop-color="#FEB886" stop-opacity="0.4756"/>
<stop offset="0.6876" stop-color="#FECD91" stop-opacity="0.3124"/>
<stop offset="0.8474" stop-color="#FFDA97" stop-opacity="0.1526"/>
<stop offset="1" stop-color="#FFDE99" stop-opacity="0"/>
</radialGradient>
<radialGradient id="paint13_radial" cx="0" cy="0" r="1" gradientUnits="userSpaceOnUse" gradientTransform="translate(414.462 355.224) scale(101.31)">
<stop stop-color="#FA404B"/>
<stop offset="0.025" stop-color="#FA484F" stop-opacity="0.975"/>
<stop offset="0.1916" stop-color="#FC7565" stop-opacity="0.8084"/>
<stop offset="0.3589" stop-color="#FD9B78" stop-opacity="0.6411"/>
<stop offset="0.5244" stop-color="#FEB886" stop-opacity="0.4756"/>
<stop offset="0.6876" stop-color="#FECD91" stop-opacity="0.3124"/>
<stop offset="0.8474" stop-color="#FFDA97" stop-opacity="0.1526"/>
<stop offset="1" stop-color="#FFDE99" stop-opacity="0"/>
</radialGradient>
<radialGradient id="paint14_radial" cx="0" cy="0" r="1" gradientUnits="userSpaceOnUse" gradientTransform="translate(486.017 167.535) scale(87.5877)">
<stop offset="0.0775" stop-color="#FFC647"/>
<stop offset="1" stop-color="#E5A30C"/>
</radialGradient>
<radialGradient id="paint15_radial" cx="0" cy="0" r="1" gradientUnits="userSpaceOnUse" gradientTransform="translate(505.184 218.219) scale(35.3001)">
<stop stop-color="#FA404B"/>
<stop offset="0.025" stop-color="#FA484F" stop-opacity="0.975"/>
<stop offset="0.1916" stop-color="#FC7565" stop-opacity="0.8084"/>
<stop offset="0.3589" stop-color="#FD9B78" stop-opacity="0.6411"/>
<stop offset="0.5244" stop-color="#FEB886" stop-opacity="0.4756"/>
<stop offset="0.6876" stop-color="#FECD91" stop-opacity="0.3124"/>
<stop offset="0.8474" stop-color="#FFDA97" stop-opacity="0.1526"/>
<stop offset="1" stop-color="#FFDE99" stop-opacity="0"/>
</radialGradient>
<radialGradient id="paint16_radial" cx="0" cy="0" r="1" gradientUnits="userSpaceOnUse" gradientTransform="translate(545.923 220.339) rotate(72.5598) scale(67.2622 42.1417)">
<stop stop-color="#FA404B"/>
<stop offset="0.025" stop-color="#FA484F" stop-opacity="0.975"/>
<stop offset="0.1916" stop-color="#FC7565" stop-opacity="0.8084"/>
<stop offset="0.3589" stop-color="#FD9B78" stop-opacity="0.6411"/>
<stop offset="0.5244" stop-color="#FEB886" stop-opacity="0.4756"/>
<stop offset="0.6876" stop-color="#FECD91" stop-opacity="0.3124"/>
<stop offset="0.8474" stop-color="#FFDA97" stop-opacity="0.1526"/>
<stop offset="1" stop-color="#FFDE99" stop-opacity="0"/>
</radialGradient>
<radialGradient id="paint17_radial" cx="0" cy="0" r="1" gradientUnits="userSpaceOnUse" gradientTransform="translate(553.313 119.406) scale(96.2638)">
<stop offset="0.0775" stop-color="#EEA606"/>
<stop offset="1" stop-color="#F8D994"/>
</radialGradient>
<radialGradient id="paint18_radial" cx="0" cy="0" r="1" gradientUnits="userSpaceOnUse" gradientTransform="translate(432.138 404.134) scale(85.2039)">
<stop offset="0.0989" stop-color="#FA404B"/>
<stop offset="1" stop-color="#F9C1DA" stop-opacity="0"/>
</radialGradient>
<radialGradient id="paint19_radial" cx="0" cy="0" r="1" gradientUnits="userSpaceOnUse" gradientTransform="translate(651.257 263.329) rotate(60.6048) scale(69.4142 44.3801)">
<stop offset="0.0989" stop-color="#FA404B"/>
<stop offset="1" stop-color="#F9C1DA" stop-opacity="0"/>
</radialGradient>
<radialGradient id="paint20_radial" cx="0" cy="0" r="1" gradientUnits="userSpaceOnUse" gradientTransform="translate(233.446 330.237) scale(91.9067)">
<stop stop-color="#F7DA97"/>
<stop offset="0.9225" stop-color="#D89907"/>
</radialGradient>
<radialGradient id="paint21_radial" cx="0" cy="0" r="1" gradientUnits="userSpaceOnUse" gradientTransform="translate(621.885 423.513) scale(147.132)">
<stop offset="0.0989" stop-color="#FA404B"/>
<stop offset="1" stop-color="#F9C1DA" stop-opacity="0"/>
</radialGradient>
<radialGradient id="paint22_radial" cx="0" cy="0" r="1" gradientUnits="userSpaceOnUse" gradientTransform="translate(761.588 463.55) scale(164.153)">
<stop stop-color="#F9C1DA"/>
<stop offset="0.1462" stop-color="#F2CEE4" stop-opacity="0.8538"/>
<stop offset="0.4384" stop-color="#E7E3F3" stop-opacity="0.5616"/>
<stop offset="0.7256" stop-color="#E0F0FC" stop-opacity="0.2744"/>
<stop offset="1" stop-color="#DEF4FF" stop-opacity="0"/>
</radialGradient>
<radialGradient id="paint23_radial" cx="0" cy="0" r="1" gradientUnits="userSpaceOnUse" gradientTransform="translate(412.332 278.7) scale(92.1664)">
<stop stop-color="#F9C1DA"/>
<stop offset="0.1462" stop-color="#F2CEE4" stop-opacity="0.8538"/>
<stop offset="0.4384" stop-color="#E7E3F3" stop-opacity="0.5616"/>
<stop offset="0.7256" stop-color="#E0F0FC" stop-opacity="0.2744"/>
<stop offset="1" stop-color="#DEF4FF" stop-opacity="0"/>
</radialGradient>
<radialGradient id="paint24_radial" cx="0" cy="0" r="1" gradientUnits="userSpaceOnUse" gradientTransform="translate(452.369 386.884) scale(102.943)">
<stop offset="0.1096" stop-color="#BDD9FF"/>
<stop offset="1" stop-color="#DEF4FF" stop-opacity="0"/>
</radialGradient>
<radialGradient id="paint25_radial" cx="0" cy="0" r="1" gradientUnits="userSpaceOnUse" gradientTransform="translate(563.093 443.96) rotate(-13.8459) scale(154.038 78.7095)">
<stop offset="0.1096" stop-color="#BDD9FF"/>
<stop offset="1" stop-color="#DEF4FF" stop-opacity="0"/>
</radialGradient>
<radialGradient id="paint26_radial" cx="0" cy="0" r="1" gradientUnits="userSpaceOnUse" gradientTransform="translate(496.807 200.473) scale(29.2134)">
<stop stop-color="#FA404B"/>
<stop offset="0.025" stop-color="#FA484F" stop-opacity="0.975"/>
<stop offset="0.1916" stop-color="#FC7565" stop-opacity="0.8084"/>
<stop offset="0.3589" stop-color="#FD9B78" stop-opacity="0.6411"/>
<stop offset="0.5244" stop-color="#FEB886" stop-opacity="0.4756"/>
<stop offset="0.6876" stop-color="#FECD91" stop-opacity="0.3124"/>
<stop offset="0.8474" stop-color="#FFDA97" stop-opacity="0.1526"/>
<stop offset="1" stop-color="#FFDE99" stop-opacity="0"/>
</radialGradient>
<radialGradient id="paint27_radial" cx="0" cy="0" r="1" gradientUnits="userSpaceOnUse" gradientTransform="translate(266.455 347.274) scale(33.4775)">
<stop stop-color="#BDD9FF"/>
<stop offset="1" stop-color="#DEF4FF"/>
</radialGradient>
<radialGradient id="paint28_radial" cx="0" cy="0" r="1" gradientUnits="userSpaceOnUse" gradientTransform="translate(470.471 159.442) scale(49.7549)">
<stop offset="0.0989" stop-color="#FA404B"/>
<stop offset="1" stop-color="#F9C1DA" stop-opacity="0"/>
</radialGradient>
<radialGradient id="paint29_radial" cx="0" cy="0" r="1" gradientUnits="userSpaceOnUse" gradientTransform="translate(736.731 233.419) rotate(-0.0889809) scale(133.298)">
<stop offset="0.1096" stop-color="#F3E3BF"/>
<stop offset="1" stop-color="#F2E3BF" stop-opacity="0.18"/>
</radialGradient>
<radialGradient id="paint30_radial" cx="0" cy="0" r="1" gradientUnits="userSpaceOnUse" gradientTransform="translate(74.5 306.501) rotate(90) scale(47.5)">
<stop stop-color="#F8BC37" stop-opacity="0.24"/>
<stop offset="1" stop-color="#F3BC41" stop-opacity="0"/>
</radialGradient>
<radialGradient id="paint31_radial" cx="0" cy="0" r="1" gradientUnits="userSpaceOnUse" gradientTransform="translate(270 466.001) rotate(90) scale(32)">
<stop stop-color="#F8BC37" stop-opacity="0.24"/>
<stop offset="1" stop-color="#F3BC41" stop-opacity="0"/>
</radialGradient>
<clipPath id="clip0">
<rect width="1079" height="606.938" fill="white"/>
</clipPath>
</defs>
</svg>
